<svg xmlns="http://www.w3.org/2000/svg" viewBox="0 0 412.49 114"><defs><style>.cls-1{fill:#00b140;}.cls-2{fill:#fff;}</style></defs><title>Zasób 1</title><g id="Warstwa_2" data-name="Warstwa 2"><g id="Warstwa_1-2" data-name="Warstwa 1"><polygon class="cls-1" points="260.38 57 182.45 0 182.45 22.45 0 22.45 0 91.56 182.45 91.56 182.45 114 260.38 57"/><path class="cls-1" d="M272.55,38.91h16.92a29.23,29.23,0,0,1,4.67.3,12.8,12.8,0,0,1,4.21,1.38A7.74,7.74,0,0,1,302.56,48a7.51,7.51,0,0,1-1.31,4.34,9.28,9.28,0,0,1-3.46,3,8.38,8.38,0,0,1,4.56,3.17,8.89,8.89,0,0,1,1.68,5.4,11.75,11.75,0,0,1-1.11,5.4,9.11,9.11,0,0,1-3,3.44,12.76,12.76,0,0,1-4.48,1.86,26.78,26.78,0,0,1-5.48.56H272.55ZM282,53.16h7.3a5.17,5.17,0,0,0,1.3-.19,3.53,3.53,0,0,0,1.24-.58,3.6,3.6,0,0,0,.94-1.06,3.26,3.26,0,0,0,.37-1.62A3,3,0,0,0,291.93,47a4.78,4.78,0,0,0-2.66-.76H282Zm0,14.38h7.57a6.62,6.62,0,0,0,3.64-.9,3.48,3.48,0,0,0,1.42-3.14,3.6,3.6,0,0,0-1.48-3.32,6.45,6.45,0,0,0-3.58-.94H282Z"/><path class="cls-1" d="M316.89,38.91h9.58L340,75.11h-9.84l-2.23-6.49H315.31L313,75.11h-9.69Zm.6,22.72h8.21L321.7,49h-.09Z"/><path class="cls-1" d="M341.69,38.91h9.68l12.57,22.31h.1V38.91h8.87v36.2h-9.68L350.66,52.54h-.1V75.11h-8.87Z"/><path class="cls-1" d="M377.77,38.91h9.43V52.8l11.91-13.89h11.7L397.43,53.16l15.06,22H400.78L391.05,59.9l-3.85,4V75.11h-9.43Z"/><path class="cls-2" d="M75.24,75.1H69.16l-.57-4a8.54,8.54,0,0,1-2.15,2.21,12.9,12.9,0,0,1-2.58,1.44,12.36,12.36,0,0,1-2.71.81,13.69,13.69,0,0,1-2.63.26,18.12,18.12,0,0,1-7.45-1.48,16.72,16.72,0,0,1-5.71-4,17.88,17.88,0,0,1-3.62-6,22.21,22.21,0,0,1,0-14.75,17.88,17.88,0,0,1,3.62-6,16.61,16.61,0,0,1,5.71-4,18.28,18.28,0,0,1,7.45-1.47,21.6,21.6,0,0,1,5.59.75,16.64,16.64,0,0,1,5.1,2.36A13.86,13.86,0,0,1,73,45.35a13.11,13.11,0,0,1,1.85,5.87H65.46a4.78,4.78,0,0,0-2.26-3.64,8.71,8.71,0,0,0-4.89-1.32,7.64,7.64,0,0,0-3.87.91,7.73,7.73,0,0,0-2.62,2.43,10.36,10.36,0,0,0-1.46,3.45,16.8,16.8,0,0,0-.46,4,16.62,16.62,0,0,0,.46,4,10.41,10.41,0,0,0,1.46,3.46,7.93,7.93,0,0,0,2.62,2.43,7.64,7.64,0,0,0,3.87.9A9.86,9.86,0,0,0,64,66.25a5.75,5.75,0,0,0,2.62-4H60v-7H75.24Z"/><path class="cls-2" d="M80.55,38.9h28.84v7.55H90V52.8h17.74v7.3H90V67h19.92V75.1H80.55Z"/><path class="cls-2" d="M144.69,47h-10.8V75.1h-9.43V47h-10.8V38.9h31Z"/><path class="cls-2" d="M159.73,38.9h9.44V75.1h-9.44Z"/><path class="cls-2" d="M175.6,38.9h9.69l12.56,22.32h.1V38.9h8.88V75.1h-9.69L184.57,52.54h-.1V75.1H175.6Z"/></g></g></svg>